/* XPM */
static char * i_cdrom_xpm[] = {
"48 48 687 2",
"  	c None",
". 	c #000000",
"+ 	c #8A7283",
"@ 	c #A88DA6",
"# 	c #AF92AD",
"$ 	c #AF8CA2",
"% 	c #A78CA8",
"& 	c #9D87B0",
"* 	c #9D89B2",
"= 	c #A28EB0",
"- 	c #9B86A4",
"; 	c #7F6D80",
"> 	c #8B6C6D",
", 	c #CDAEAC",
"' 	c #D1B4B9",
") 	c #C0A2B8",
"! 	c #BA9EB9",
"~ 	c #B89BB8",
"{ 	c #B290A7",
"] 	c #A88DA8",
"^ 	c #9D87B1",
"/ 	c #9D8AB4",
"( 	c #A693BA",
"_ 	c #B09FBE",
": 	c #C1B2C7",
"< 	c #C1B1C1",
"[ 	c #AD919E",
"} 	c #6A5D64",
"| 	c #7A5F62",
"1 	c #CDA79C",
"2 	c #D8B2A7",
"3 	c #D8B5B1",
"4 	c #D9BDBB",
"5 	c #C6AAB8",
"6 	c #BD9FBA",
"7 	c #BA9CB9",
"8 	c #B391AA",
"9 	c #A78CA7",
"0 	c #9C87B0",
"a 	c #9F8BB5",
"b 	c #A896BB",
"c 	c #B5A4C1",
"d 	c #C4B5C8",
"e 	c #BCA6B8",
"f 	c #AC99AA",
"g 	c #9E8FA2",
"h 	c #968A99",
"i 	c #5F595D",
"j 	c #B28184",
"k 	c #D1A090",
"l 	c #D6AC9A",
"m 	c #D9B3A0",
"n 	c #D8B4AA",
"o 	c #D9B9B4",
"p 	c #D2B6BA",
"q 	c #BEA0B8",
"r 	c #B99CB9",
"s 	c #B494AE",
"t 	c #A98DA8",
"u 	c #9C87B1",
"v 	c #9F8CB5",
"w 	c #AA99BC",
"x 	c #BFAFC6",
"y 	c #BFAEBF",
"z 	c #B29DAD",
"A 	c #A08FA2",
"B 	c #978B9F",
"C 	c #958394",
"D 	c #997C85",
"E 	c #8D8289",
"F 	c #1F181B",
"G 	c #BC7B79",
"H 	c #CA897A",
"I 	c #CB9384",
"J 	c #D19F8F",
"K 	c #D6AC99",
"L 	c #D9B4A0",
"M 	c #D8B5AA",
"N 	c #DABBB6",
"O 	c #C5A7B8",
"P 	c #BB9EB9",
"Q 	c #B797B3",
"R 	c #AA8EA9",
"S 	c #9D88B3",
"T 	c #A18EB6",
"U 	c #B19FBF",
"V 	c #C4B5C7",
"W 	c #BBA2B1",
"X 	c #A493A5",
"Y 	c #988A9D",
"Z 	c #978291",
"` 	c #937D88",
" .	c #8A828E",
"..	c #858490",
"+.	c #8C8E97",
"@.	c #1F1F20",
"#.	c #282122",
"$.	c #C78889",
"%.	c #CB8B8C",
"&.	c #C9858A",
"*.	c #C88279",
"=.	c #CA8F82",
"-.	c #D09D8D",
";.	c #D6AC98",
">.	c #D9B7AC",
",.	c #D2B6B8",
"'.	c #BDA0B8",
").	c #BA9BB7",
"!.	c #AC91AA",
"~.	c #9D89B3",
"{.	c #A492B8",
"].	c #BCACC4",
"^.	c #BCA9BB",
"/.	c #AA97A7",
"(.	c #9A8A9C",
"_.	c #9A7E89",
":.	c #8E818C",
"<.	c #858390",
"[.	c #818492",
"}.	c #7F8695",
"|.	c #7C8694",
"1.	c #828B97",
"2.	c #242527",
"3.	c #C88F85",
"4.	c #D1978F",
"5.	c #D0948F",
"6.	c #CD8F8D",
"7.	c #CB898E",
"8.	c #C98289",
"9.	c #C8847C",
"0.	c #CF9A8C",
"a.	c #D7AA97",
"b.	c #DBB8A2",
"c.	c #DBBAAE",
"d.	c #C3A5B7",
"e.	c #BA9CB7",
"f.	c #AE94AC",
"g.	c #A997BB",
"h.	c #BDADC2",
"i.	c #B19AAB",
"j.	c #9E8A9B",
"k.	c #97808A",
"l.	c #89838F",
"m.	c #818391",
"n.	c #7E8694",
"o.	c #7A8694",
"p.	c #7C8896",
"q.	c #7F8A98",
"r.	c #89919C",
"s.	c #BC8A78",
"t.	c #D8A595",
"u.	c #D6A294",
"v.	c #D59D91",
"w.	c #D19790",
"x.	c #D0938F",
"y.	c #CE8F91",
"z.	c #CA8890",
"A.	c #C67C88",
"B.	c #CD9086",
"C.	c #D6A897",
"D.	c #DCB99F",
"E.	c #D2B4B2",
"F.	c #BC9EB8",
"G.	c #B197AD",
"H.	c #A08DB6",
"I.	c #B7A6C2",
"J.	c #B39AAD",
"K.	c #A48A98",
"L.	c #918590",
"M.	c #828491",
"N.	c #7D8593",
"O.	c #7B8795",
"P.	c #7D8997",
"Q.	c #808C99",
"R.	c #86909D",
"S.	c #8A939F",
"T.	c #8F96A2",
"U.	c #92969E",
"V.	c #7D6357",
"W.	c #DAACA3",
"X.	c #D9AA9F",
"Y.	c #D8A99C",
"Z.	c #D9A89B",
"`.	c #D8A697",
" +	c #D5A095",
".+	c #D39994",
"++	c #CF9392",
"@+	c #CE8F93",
"#+	c #C98590",
"$+	c #C87F8E",
"%+	c #D9AF9E",
"&+	c #E8D2B9",
"*+	c #DAC8D3",
"=+	c #D8CBD4",
"-+	c #CEC4D9",
";+	c #D0C5D4",
">+	c #C2ACB2",
",+	c #95939E",
"'+	c #778391",
")+	c #7A8795",
"!+	c #7D8A98",
"~+	c #848F9B",
"{+	c #8B94A0",
"]+	c #8F97A2",
"^+	c #939AA5",
"/+	c #979CA6",
"(+	c #9A9DA7",
"_+	c #9C9EA8",
":+	c #6E6D72",
"<+	c #CEA29E",
"[+	c #DCB4B1",
"}+	c #DCB1AD",
"|+	c #DBB0AB",
"1+	c #DBAFA8",
"2+	c #DAADA5",
"3+	c #DAABA1",
"4+	c #D9AA9D",
"5+	c #D7A49A",
"6+	c #D39B96",
"7+	c #CE9494",
"8+	c #D7A8AF",
"9+	c #E2BDC6",
"0+	c #BEA3A6",
"a+	c #615B56",
"b+	c #211F20",
"c+	c #201F21",
"d+	c #544F52",
"e+	c #9EA0A5",
"f+	c #BBC1C8",
"g+	c #95A0AB",
"h+	c #818D9A",
"i+	c #9098A2",
"j+	c #9B9EA7",
"k+	c #9FA0A9",
"l+	c #A1A1AA",
"m+	c #A3A1A9",
"n+	c #A5A1A9",
"o+	c #A59EA5",
"p+	c #695252",
"q+	c #DFBBBE",
"r+	c #DFBABD",
"s+	c #DFBABC",
"t+	c #DEBABB",
"u+	c #DFBABA",
"v+	c #DEB8B7",
"w+	c #DEB7B5",
"x+	c #DBB2AD",
"y+	c #DAAEA9",
"z+	c #E1BDB8",
"A+	c #E9CFCE",
"B+	c #77696B",
"C+	c #65686B",
"D+	c #CACCD1",
"E+	c #B1B3BA",
"F+	c #A5A4AC",
"G+	c #A9A7AE",
"H+	c #ABA6AD",
"I+	c #ACA6AC",
"J+	c #AFA7AC",
"K+	c #AFA6AC",
"L+	c #AFA5AB",
"M+	c #AFA5AA",
"N+	c #AFA4AA",
"O+	c #5B5458",
"P+	c #BD90A0",
"Q+	c #E0BDCB",
"R+	c #E0BECB",
"S+	c #E0BDC9",
"T+	c #E0BDC8",
"U+	c #DFCCC0",
"V+	c #DECDC0",
"W+	c #DFCDC1",
"X+	c #DECDBF",
"Y+	c #DDCDBE",
"Z+	c #E9DFD8",
"`+	c #8F8885",
" @	c #868283",
".@	c #D7CFD1",
"+@	c #BCADB1",
"@@	c #BBADB1",
"#@	c #BAABAF",
"$@	c #B9AAAE",
"%@	c #B8A9AD",
"&@	c #BAAAAF",
"*@	c #A59499",
"=@	c #D2B8B5",
"-@	c #DECAC6",
";@	c #DEC9C6",
">@	c #DEC9C7",
",@	c #DEC8C5",
"'@	c #DEC7C6",
")@	c #DEC6C6",
"!@	c #DDC5C6",
"~@	c #DEC3C6",
"{@	c #DCC0C4",
"]@	c #DBBCC3",
"^@	c #ECDBE1",
"/@	c #262325",
"(@	c #252324",
"_@	c #E5D8DB",
":@	c #CBB3B8",
"<@	c #CAB2B7",
"[@	c #C9B2B7",
"}@	c #C6B0B5",
"|@	c #C5AFB3",
"1@	c #C4AEB3",
"2@	c #C3AEB2",
"3@	c #C3AEB3",
"4@	c #C2AEB2",
"5@	c #BCA5AC",
"6@	c #DBC2C2",
"7@	c #DFC7C7",
"8@	c #DFC5C6",
"9@	c #DEC4C6",
"0@	c #DEC2C6",
"a@	c #DDBEC5",
"b@	c #DCBBC4",
"c@	c #DBBAC5",
"d@	c #DAB8C6",
"e@	c #DBB7C8",
"f@	c #E9D3E0",
"g@	c #8E838B",
"h@	c #908889",
"i@	c #E8DBDE",
"j@	c #D8C1C5",
"k@	c #D6BEC3",
"l@	c #D3BBC0",
"m@	c #D1B9BE",
"n@	c #D0B6BC",
"o@	c #CFB6BB",
"p@	c #CEB5BA",
"q@	c #CDB4B9",
"r@	c #CCB3B8",
"s@	c #CCB3B7",
"t@	c #C8AFB4",
"u@	c #DABCC1",
"v@	c #DEC0C5",
"w@	c #DEC1C5",
"x@	c #DCBEC5",
"y@	c #DCBAC4",
"z@	c #DCBBC6",
"A@	c #DEBCC9",
"B@	c #DDBBCA",
"C@	c #DDB9CB",
"D@	c #DCB8CC",
"E@	c #DCB6CE",
"F@	c #DFC1D2",
"G@	c #E5D2DF",
"H@	c #716E72",
"I@	c #767170",
"J@	c #EBDEDE",
"K@	c #E3CCCF",
"L@	c #DBC2C5",
"M@	c #DBC3C7",
"N@	c #DCC4C8",
"O@	c #DAC2C6",
"P@	c #D8C0C4",
"Q@	c #D7BFC3",
"R@	c #D5BBC1",
"S@	c #D4BBC0",
"T@	c #D2B8BE",
"U@	c #D1B7BD",
"V@	c #CFB4BA",
"W@	c #D2AFB8",
"X@	c #DEBDC6",
"Y@	c #DEBDC8",
"Z@	c #DEBCC8",
"`@	c #DDBCCA",
" #	c #DDBACA",
".#	c #D9B1CB",
"+#	c #D8ACC9",
"@#	c #D5ACC5",
"##	c #C9AFB8",
"$#	c #CCBBC8",
"%#	c #D3CAD7",
"&#	c #B0A5B1",
"*#	c #58575E",
"=#	c #202022",
"-#	c #1E1F21",
";#	c #585A60",
">#	c #ACB1B2",
",#	c #D9D8D4",
"'#	c #D4C8C4",
")#	c #D6C0BF",
"!#	c #DBC0C0",
"~#	c #DAC2C3",
"{#	c #DAC2C4",
"]#	c #DAC2C5",
"^#	c #DBC4C7",
"/#	c #DBC3C6",
"(#	c #DAC1C6",
"_#	c #D8BFC4",
":#	c #D7BFC2",
"<#	c #CEB1B6",
"[#	c #C29AA9",
"}#	c #DFBDCA",
"|#	c #DEBDCB",
"1#	c #DEBDCC",
"2#	c #DCB9CC",
"3#	c #DCB6CB",
"4#	c #DAB1CA",
"5#	c #D7ACC8",
"6#	c #D5ACC3",
"7#	c #CFB3B9",
"8#	c #C8AEB8",
"9#	c #BEA4B7",
"0#	c #A798B3",
"a#	c #B49FBB",
"b#	c #C4BBD8",
"c#	c #D2D1E3",
"d#	c #DADCE8",
"e#	c #CFD1E0",
"f#	c #CAD0E3",
"g#	c #C1C9D9",
"h#	c #B4BBBD",
"i#	c #B6B2AF",
"j#	c #C8BCB5",
"k#	c #D2BFBD",
"l#	c #D9C1C0",
"m#	c #DAC3C3",
"n#	c #D9C3C3",
"o#	c #DAC3C5",
"p#	c #DAC4C6",
"q#	c #DAC3C7",
"r#	c #DAC3C6",
"s#	c #BFA0A6",
"t#	c #755C67",
"u#	c #DCB8CB",
"v#	c #DAB3C9",
"w#	c #D9B0C9",
"x#	c #D7ACC7",
"y#	c #D5ADC3",
"z#	c #D4B6BF",
"A#	c #CDAFB8",
"B#	c #C6A9B7",
"C#	c #BB9EB4",
"D#	c #A594B3",
"E#	c #AB97B5",
"F#	c #A499C8",
"G#	c #B2A6C7",
"H#	c #BDC2D8",
"I#	c #BDC0D6",
"J#	c #A7ABC7",
"K#	c #A2A9C9",
"L#	c #A2AECD",
"M#	c #A0AEBB",
"N#	c #B0B5B9",
"O#	c #B8B3B3",
"P#	c #C5BBB4",
"Q#	c #D0BFBC",
"R#	c #D7C2C0",
"S#	c #DAC1C1",
"T#	c #DAC4C3",
"U#	c #D9C4C4",
"V#	c #DAC5C5",
"W#	c #D9C4C5",
"X#	c #D9C3C4",
"Y#	c #D9C4C6",
"Z#	c #715B5F",
"`#	c #D2A8BF",
" $	c #D9B0C8",
".$	c #D7ADC8",
"+$	c #D6AAC7",
"@$	c #D5B8BE",
"#$	c #D2B1B8",
"$$	c #CCAEB8",
"%$	c #C6A8B6",
"&$	c #BA9BB2",
"*$	c #A992B2",
"=$	c #A896B6",
"-$	c #AC95B6",
";$	c #AEA1CA",
">$	c #BAB2CD",
",$	c #C1C6DA",
"'$	c #BEC2D5",
")$	c #A8ACC9",
"!$	c #A0A6C4",
"~$	c #A1ABCA",
"{$	c #A3AFC9",
"]$	c #A9B6B7",
"^$	c #B2B4B8",
"/$	c #B9B4B6",
"($	c #C1B7B4",
"_$	c #CDC0BB",
":$	c #D5C3C1",
"<$	c #D8C3C1",
"[$	c #D9C3C1",
"}$	c #D9C4C3",
"|$	c #CFB8B7",
"1$	c #946B82",
"2$	c #D7AAC6",
"3$	c #D4B5BD",
"4$	c #D0B0B9",
"5$	c #CAACB8",
"6$	c #C3A3B4",
"7$	c #B897B0",
"8$	c #AE93B2",
"9$	c #A798B8",
"0$	c #AA95B7",
"a$	c #A59CC9",
"b$	c #B4A8CA",
"c$	c #BFB8D1",
"d$	c #C1C5D9",
"e$	c #C0C4D7",
"f$	c #A9AEC9",
"g$	c #9EA3C3",
"h$	c #A2AAC8",
"i$	c #9FABCB",
"j$	c #9DABBD",
"k$	c #ADB5BA",
"l$	c #B1B2B8",
"m$	c #B8B3B6",
"n$	c #C0B5B4",
"o$	c #CCBFB9",
"p$	c #D3C2C0",
"q$	c #D8C4C1",
"r$	c #D9C3C2",
"s$	c #D8C5C3",
"t$	c #8E7473",
"u$	c #C6A9AE",
"v$	c #D2B2B8",
"w$	c #CFB0B9",
"x$	c #C9A9B6",
"y$	c #C1A0B3",
"z$	c #B294B3",
"A$	c #A496B8",
"B$	c #A996B8",
"C$	c #9F97C7",
"D$	c #ADA0C9",
"E$	c #BAAECB",
"F$	c #C1BFD6",
"G$	c #C2C6D9",
"H$	c #BFC2D6",
"I$	c #ABAFCA",
"J$	c #9FA3C2",
"K$	c #A0A7C5",
"L$	c #9DA8C8",
"M$	c #9EABC5",
"N$	c #A4B1B9",
"O$	c #B0B6BB",
"P$	c #B2B2B8",
"Q$	c #B7B2B7",
"R$	c #C0B6B7",
"S$	c #C9BCB9",
"T$	c #D1C2BF",
"U$	c #D6C4C3",
"V$	c #D9C4C2",
"W$	c #C4ADA9",
"X$	c #C8A7AE",
"Y$	c #C7A6B4",
"Z$	c #BF9DB0",
"`$	c #B997B0",
" %	c #B495B3",
".%	c #A692B5",
"+%	c #A895B8",
"@%	c #AB95B8",
"#%	c #A79AC9",
"$%	c #B6A9CB",
"%%	c #BFB5CE",
"&%	c #C3C5DA",
"*%	c #BEC2D6",
"=%	c #AEB1CC",
"-%	c #9FA4C1",
";%	c #9FA7C6",
">%	c #9EA9C9",
",%	c #9DAABE",
"'%	c #AAB6B9",
")%	c #B1B5BC",
"!%	c #B2B1B7",
"~%	c #B8B2B7",
"{%	c #C0B7B9",
"]%	c #C6BAB8",
"^%	c #CEC1BD",
"/%	c #CCBCB9",
"(%	c #2E2A29",
"_%	c #BA96A9",
":%	c #B997B1",
"<%	c #B595B3",
"[%	c #A890B3",
"}%	c #A796B9",
"|%	c #A895B7",
"1%	c #A19BC9",
"2%	c #AEA4CB",
"3%	c #BBAECD",
"4%	c #C2BBD3",
"5%	c #C5C8DC",
"6%	c #BEC1D5",
"7%	c #AFB2CC",
"8%	c #A2A5C3",
"9%	c #9FA4C2",
"0%	c #A0A7C6",
"a%	c #9CA8C7",
"b%	c #9CA8C3",
"c%	c #A2B0BB",
"d%	c #ADB5BB",
"e%	c #B1B3BB",
"f%	c #B2AFB6",
"g%	c #B8B1B8",
"h%	c #C0B7BA",
"i%	c #BFB5B4",
"j%	c #2E2E2E",
"k%	c #262021",
"l%	c #AE8BA8",
"m%	c #AA90B3",
"n%	c #A597B9",
"o%	c #A795B8",
"p%	c #9D95C7",
"q%	c #A79DCB",
"r%	c #B6AACD",
"s%	c #BFB4CE",
"t%	c #C4BED5",
"u%	c #C5C9DC",
"v%	c #B1B4CD",
"w%	c #A1A5C3",
"x%	c #9DA6C5",
"y%	c #9BA7C6",
"z%	c #9DAAC0",
"A%	c #A8B3BA",
"B%	c #AFB6BC",
"C%	c #B1B2BA",
"D%	c #B3AFB6",
"E%	c #B1ABB2",
"F%	c #272829",
"G%	c #937B9D",
"H%	c #A695B8",
"I%	c #AA95B9",
"J%	c #A19ACA",
"K%	c #AFA5CC",
"L%	c #BAADCC",
"M%	c #C1B7D0",
"N%	c #C6C2D8",
"O%	c #C4C8DB",
"P%	c #C3C6D9",
"Q%	c #B2B5CD",
"R%	c #A2A6C4",
"S%	c #9DA2C0",
"T%	c #A0A6C3",
"U%	c #9EA6C4",
"V%	c #9CA7C6",
"W%	c #9AA7C3",
"X%	c #A1AEBE",
"Y%	c #ACB6BB",
"Z%	c #B0B4BB",
"`%	c #A0A1AC",
" &	c #614F62",
".&	c #968AB8",
"+&	c #A99DCB",
"@&	c #B7AACE",
"#&	c #BEB3CE",
"$&	c #C4BBD2",
"%&	c #C4C4DA",
"&&	c #C5C8DB",
"*&	c #C1C5D8",
"=&	c #B3B7CE",
"-&	c #A4A9C5",
";&	c #9EA3C0",
">&	c #9FA5C2",
",&	c #9FA6C4",
"'&	c #9CA7C5",
")&	c #9BA6C5",
"!&	c #9CAAC0",
"~&	c #9FABB7",
"{&	c #686E78",
"]&	c #6E5D76",
"^&	c #AC9BBC",
"/&	c #C0B4CF",
"(&	c #C6BFD5",
"_&	c #C5C7DC",
":&	c #C6C9DC",
"<&	c #B4B8CF",
"[&	c #A5AAC6",
"}&	c #9FA3C1",
"|&	c #9DA2C1",
"1&	c #A1A7C4",
"2&	c #9CA5C3",
"3&	c #949DBD",
"4&	c #636C81",
"5&	c #837B95",
"6&	c #A8ACC3",
"7&	c #B9BCD1",
"8&	c #BCC0D3",
"9&	c #BDC0D4",
"0&	c #B4B8CE",
"a&	c #A5A9C4",
"b&	c #9D9FBB",
"c&	c #9496B0",
"d&	c #777A8F",
"                                                                                                ",
"                                                                                                ",
"                                                                                                ",
"                                                                                                ",
"                                                                                                ",
"                                                                                                ",
"                                                                                                ",
"                                                                                                ",
"                                      . . . . . . . . . .                                       ",
"                                . . . + @ # $ % & * = - ; . . .                                 ",
"                            . . > , ' ) ! ~ { ] ^ / ( _ : < [ } . .                             ",
"                        . . | 1 2 3 4 5 6 7 8 9 0 a b c d e f g h i . .                         ",
"                      . . j k l m n o p q r s t u v w x y z A B C D E . .                       ",
"                    . F G H I J K L M N O P Q R S T U V W X Y Z `  ...+.@..                     ",
"                  . #.$.%.&.*.=.-.;.L >.,.'.).!.~.{.].^./.(._.:.<.[.}.|.1.2..                   ",
"                . . 3.4.5.6.7.8.9.0.a.b.c.d.e.f.v g.h.i.j.k.l.m.n.|.o.p.q.r.. .                 ",
"                . s.t.u.v.w.x.y.z.A.B.C.D.E.F.G.H.I.J.K.L.M.N.O.O.P.Q.R.S.T.U.. .               ",
"              . V.W.X.Y.Z.`. +.+++@+#+$+%+&+*+=+-+;+>+,+n.'+)+!+~+{+]+^+/+(+_+:+.               ",
"              . <+[+}+|+1+2+3+4+5+6+7+8+9+0+a+b+c+d+e+f+g+h+{+i+/+j+k+l+m+m+n+o+. .             ",
"            . p+q+r+s+t+u+v+w+[+x+y+z+A+B+. . . . . . C+D+E+F+G+H+I+I+J+K+L+M+N+O+.             ",
"            . P+Q+R+S+T+T+U+V+W+X+Y+Z+`+. . . . . . . .  @.@+@@@#@$@%@$@$@$@&@&@*@.             ",
"            . =@-@;@>@,@'@)@!@~@{@]@^@/@. . .         . (@_@:@<@[@}@}@|@1@2@3@4@5@.             ",
"            . 6@7@8@9@~@0@a@b@c@d@e@f@g@. .         . . h@i@j@k@l@m@n@o@p@q@r@s@t@.             ",
"            . u@v@w@x@y@z@A@B@C@D@E@F@G@H@. . . . . . I@J@K@L@M@N@O@P@Q@R@S@T@U@V@.             ",
"            . W@X@Y@Z@`@ #C@D@.#+#@###$#%#&#*#=#-#;#>#,#'#)#!#~#{#]#^#^#/#(#_#:#<#.             ",
"            . [#}#|#1#2#3#4#5#6#7#8#9#0#a#b#c#d#e#f#g#h#i#j#k#l#6@m#n#o#p#q#r#r#s#.             ",
"            . t#C@u#v#w#x#y#z#A#B#C#D#E#F#G#H#I#J#K#L#M#N#O#P#Q#R#S#T#U#V#W#X#Y#Z#.             ",
"              . `# $.$+$@$#$$$%$&$*$=$-$;$>$,$'$)$!$~${$]$^$/$($_$:$<$[$U#}$W#|$. .             ",
"              . 1$2$6#3$4$5$6$7$8$9$0$a$b$c$d$e$f$g$h$i$j$k$l$m$n$o$p$q$r$r$s$t$. .             ",
"                . u$v$w$x$y$7$z$A$B$C$D$E$F$G$H$I$J$K$L$M$N$O$P$Q$R$S$T$U$V$W$. .               ",
"                . . X$Y$Z$`$ %.%+%@%#%$%%%&%d$*%=%-%!$;%>%,%'%)%!%~%{%]%^%/%. . .               ",
"                  . (%_%:%<%[%}%|%1%2%3%4%5%G$6%7%8%9%0%a%b%c%d%e%f%g%h%i%j%. .                 ",
"                    . k%l%m%n%o%p%q%r%s%t%u%G$6%v%w%9%!$x%y%z%A%B%C%D%E%F%. .                   ",
"                      . . G%H%I%J%K%L%M%N%O%P%6%Q%R%S%T%U%V%W%X%Y%Z%`%. . . .                   ",
"                        . .  &.&+&@&#&$&%&&&*&6%=&-&;&>&,&'&)&!&~&{&. . .                       ",
"                          . . . ]&^&/&(&_&:&*&6%<&[&}&|&1&2&3&4&. . . .                         ",
"                              . . . . 5&6&7&8&9&0&a&b&c&d&. . . . .                             ",
"                                    . . . . . . . . . . . . . .                                 ",
"                                                                                                ",
"                                                                                                ",
"                                                                                                ",
"                                                                                                ",
"                                                                                                ",
"                                                                                                ",
"                                                                                                ",
"                                                                                                ",
"                                                                                                ",
"                                                                                                "};
