/* XPM */
static char * pce_xpm[] = {
"32 32 18 1",
" 	c None",
".	c #000000",
"+	c #B7B7B7",
"@	c #946262",
"#	c #EA1111",
"$	c #9B5B5B",
"%	c #C33636",
"&	c #EC0F0F",
"*	c #F50707",
"=	c #EF0C0C",
"-	c #A55252",
";	c #E71111",
">	c #F80101",
",	c #FC0000",
"'	c #E01A1A",
")	c #926A6A",
"!	c #9F5555",
"~	c #FF0000",
"                                ",
"                                ",
"                                ",
"                                ",
"                                ",
"            ...                 ",
"           .+++..               ",
"          .++++++..             ",
"         .+++++++++..           ",
"        .++++++....++..         ",
"       .++++++.++++..++..       ",
"      .++++++.+++++++.+++..     ",
"     .++++++.++@#$++++.++++..   ",
"    .++++++.++%&*=-+++.++++++.  ",
"   ...++++.+++-;>,'++.++++++..  ",
"  ..++..+.+++++)!~$+.++++++.+.  ",
" .++..++.++++++++++.++++++.++.  ",
" ..+++..++..++++++.++++++.+++.  ",
" .+..+.++.++..+++.++++++.+++.   ",
" .+++....++++.++.++++++.+++.    ",
" .+..+.+++++.++...++++.+++.     ",
"  .++++..++.++..++..+.+++.      ",
"   ..++++..+..++..++.+++.       ",
"     ..++++....+++..+++.        ",
"       ..++++++..+.+++.         ",
"         ..++..++.+++.          ",
"           ..++++.++.           ",
"             ..++.+.            ",
"               ....             ",
"                                ",
"                                ",
"                                "};
